# xmcd
#
# Track frame offsets:
#	150
#	21455
#	44048
#	66321
#	68491
#	88147
#	106413
#	119650
#	134586
#	158298
#	159332
#	173481
#	175440
#	191594
#	203130
#	215225
#	233057
#	247626
#
# Disc length: 3371 seconds
#
# Revision: 2
# Processed by: cddbd v1.5.2PL0 Copyright (c) Steve Scherf et al.
# Submitted via: audiograbber 1.83.01
#
DISCID=000d2912
DTITLE=Schee Daneem - A Schtinknormala Dog ...
DYEAR=1900
DGENRE=Blues
TTITLE0=Ned A Jeda
TTITLE1=I Mecht Niamehr A Hausfrau Sei
TTITLE2=De Totale Qual
TTITLE3=Aufgregter
TTITLE4=Schöne Grüße Herr Vermieter
TTITLE5=Schtaub Mein Besn Ob
TTITLE6=Da Schumi Hod An Papst Geküßt
TTITLE7=Gema Mann
TTITLE8=A Schtinknormala Dog
TTITLE9=Zwielichtfacher
TTITLE10=Rasensprenger
TTITLE11=Zwietrachtfacher
TTITLE12=I Frog Mi Wirkli
TTITLE13=Gras-Sau In Ass-Pik
TTITLE14=Sandsackdealerblues
TTITLE15=Warum San D'leid Blos Aso
TTITLE16=Koida Kaffee
TTITLE17=Trifacher
EXTD=www.scheedaneem.de\nARG and LOUD records\nMix: rre and band\nMastering: Albert
EXTD=Pöschl
EXTT0=
EXTT1=
EXTT2=
EXTT3=
EXTT4=
EXTT5=
EXTT6=
EXTT7=
EXTT8=
EXTT9=
EXTT10=
EXTT11=
EXTT12=
EXTT13=
EXTT14=
EXTT15=
EXTT16=
EXTT17=
PLAYORDER=
